<mxfile host="app.diagrams.net" modified="2023-12-23T22:04:55.555Z" agent="Mozilla/5.0 (Windows NT 10.0; Win64; x64) AppleWebKit/537.36 (KHTML, like Gecko) Chrome/120.0.0.0 Safari/537.36" etag="rCoXj5GmJGBMmdgQDYKA" version="22.1.11" type="github">
  <diagram name="Página-1" id="x1zcCOeqQKmWzKdT2nkx">
    <mxGraphModel dx="1434" dy="738" grid="1" gridSize="10" guides="1" tooltips="1" connect="1" arrows="1" fold="1" page="1" pageScale="1" pageWidth="1169" pageHeight="827" math="0" shadow="0">
      <root>
        <mxCell id="0" />
        <mxCell id="1" parent="0" />
        <mxCell id="WgfoD7nwdyiLuGOQXrAu-1" value="" style="group" vertex="1" connectable="0" parent="1">
          <mxGeometry x="13.5" y="34" width="180" height="330" as="geometry" />
        </mxCell>
        <mxCell id="WgfoD7nwdyiLuGOQXrAu-2" value="Account" style="verticalAlign=top;align=left;spacingTop=8;spacingLeft=2;spacingRight=12;shape=cube;size=10;direction=south;fontStyle=4;html=1;whiteSpace=wrap;" vertex="1" parent="WgfoD7nwdyiLuGOQXrAu-1">
          <mxGeometry width="170" height="330" as="geometry" />
        </mxCell>
        <mxCell id="WgfoD7nwdyiLuGOQXrAu-3" value="Customer" style="html=1;whiteSpace=wrap;" vertex="1" parent="WgfoD7nwdyiLuGOQXrAu-1">
          <mxGeometry x="27.5" y="79.58333333333334" width="110" height="64.58333333333334" as="geometry" />
        </mxCell>
        <mxCell id="WgfoD7nwdyiLuGOQXrAu-5" value="Merchant" style="html=1;whiteSpace=wrap;" vertex="1" parent="WgfoD7nwdyiLuGOQXrAu-1">
          <mxGeometry x="28" y="180.00333333333333" width="110" height="64.58333333333334" as="geometry" />
        </mxCell>
        <mxCell id="WgfoD7nwdyiLuGOQXrAu-6" value="" style="group" vertex="1" connectable="0" parent="1">
          <mxGeometry x="12.5" y="410" width="177.5" height="155" as="geometry" />
        </mxCell>
        <mxCell id="WgfoD7nwdyiLuGOQXrAu-7" value="Core&lt;br&gt;" style="verticalAlign=top;align=left;spacingTop=8;spacingLeft=2;spacingRight=12;shape=cube;size=10;direction=south;fontStyle=4;html=1;whiteSpace=wrap;" vertex="1" parent="WgfoD7nwdyiLuGOQXrAu-6">
          <mxGeometry width="177.5" height="155" as="geometry" />
        </mxCell>
        <mxCell id="WgfoD7nwdyiLuGOQXrAu-8" value="BaseModel" style="swimlane;fontStyle=2;align=center;verticalAlign=top;childLayout=stackLayout;horizontal=1;startSize=26;horizontalStack=0;resizeParent=1;resizeLast=0;collapsible=1;marginBottom=0;rounded=0;shadow=0;strokeWidth=1;labelBackgroundColor=default;" vertex="1" parent="WgfoD7nwdyiLuGOQXrAu-6">
          <mxGeometry x="9.397058823529413" y="45" width="140.9558823529412" height="70" as="geometry">
            <mxRectangle x="230" y="140" width="160" height="26" as="alternateBounds" />
          </mxGeometry>
        </mxCell>
        <mxCell id="WgfoD7nwdyiLuGOQXrAu-9" value="- ID:Guid" style="text;align=left;verticalAlign=top;spacingLeft=4;spacingRight=4;overflow=hidden;rotatable=0;points=[[0,0.5],[1,0.5]];portConstraint=eastwest;rounded=0;shadow=0;html=0;" vertex="1" parent="WgfoD7nwdyiLuGOQXrAu-8">
          <mxGeometry y="26" width="140.9558823529412" height="26" as="geometry" />
        </mxCell>
        <mxCell id="WgfoD7nwdyiLuGOQXrAu-10" value="" style="line;html=1;strokeWidth=1;align=left;verticalAlign=middle;spacingTop=-1;spacingLeft=3;spacingRight=3;rotatable=0;labelPosition=right;points=[];portConstraint=eastwest;" vertex="1" parent="WgfoD7nwdyiLuGOQXrAu-8">
          <mxGeometry y="52" width="140.9558823529412" height="18" as="geometry" />
        </mxCell>
        <mxCell id="WgfoD7nwdyiLuGOQXrAu-11" value="Transactions" style="verticalAlign=top;align=left;spacingTop=8;spacingLeft=2;spacingRight=12;shape=cube;size=10;direction=south;fontStyle=4;html=1;whiteSpace=wrap;" vertex="1" parent="1">
          <mxGeometry x="200" y="30" width="757" height="700" as="geometry" />
        </mxCell>
        <mxCell id="WgfoD7nwdyiLuGOQXrAu-12" value="" style="group" vertex="1" connectable="0" parent="1">
          <mxGeometry x="970" y="30" width="340" height="700" as="geometry" />
        </mxCell>
        <mxCell id="WgfoD7nwdyiLuGOQXrAu-13" value="Value Object" style="verticalAlign=top;align=left;spacingTop=8;spacingLeft=2;spacingRight=12;shape=cube;size=10;direction=south;fontStyle=4;html=1;whiteSpace=wrap;" vertex="1" parent="WgfoD7nwdyiLuGOQXrAu-12">
          <mxGeometry width="340" height="700" as="geometry" />
        </mxCell>
        <mxCell id="WgfoD7nwdyiLuGOQXrAu-14" value="CreditCardBrand" style="swimlane;fontStyle=2;align=center;verticalAlign=top;childLayout=stackLayout;horizontal=1;startSize=26;horizontalStack=0;resizeParent=1;resizeLast=0;collapsible=1;marginBottom=0;rounded=0;shadow=0;strokeWidth=1;labelBackgroundColor=default;" vertex="1" parent="WgfoD7nwdyiLuGOQXrAu-12">
          <mxGeometry x="25.266666666666666" y="49.77049180327869" width="292.4" height="335.9016393442623" as="geometry">
            <mxRectangle x="230" y="140" width="160" height="26" as="alternateBounds" />
          </mxGeometry>
        </mxCell>
        <mxCell id="WgfoD7nwdyiLuGOQXrAu-15" value="- CardBrand:CardBrand" style="text;align=left;verticalAlign=top;spacingLeft=4;spacingRight=4;overflow=hidden;rotatable=0;points=[[0,0.5],[1,0.5]];portConstraint=eastwest;rounded=0;shadow=0;html=0;" vertex="1" parent="WgfoD7nwdyiLuGOQXrAu-14">
          <mxGeometry y="26" width="292.4" height="28.983606557377048" as="geometry" />
        </mxCell>
        <mxCell id="WgfoD7nwdyiLuGOQXrAu-30" value="- Id:int" style="text;align=left;verticalAlign=top;spacingLeft=4;spacingRight=4;overflow=hidden;rotatable=0;points=[[0,0.5],[1,0.5]];portConstraint=eastwest;rounded=0;shadow=0;html=0;" vertex="1" parent="WgfoD7nwdyiLuGOQXrAu-14">
          <mxGeometry y="54.983606557377044" width="292.4" height="28.983606557377048" as="geometry" />
        </mxCell>
        <mxCell id="WgfoD7nwdyiLuGOQXrAu-31" value="- Name:string" style="text;align=left;verticalAlign=top;spacingLeft=4;spacingRight=4;overflow=hidden;rotatable=0;points=[[0,0.5],[1,0.5]];portConstraint=eastwest;rounded=0;shadow=0;html=0;" vertex="1" parent="WgfoD7nwdyiLuGOQXrAu-14">
          <mxGeometry y="83.96721311475409" width="292.4" height="28.983606557377048" as="geometry" />
        </mxCell>
        <mxCell id="WgfoD7nwdyiLuGOQXrAu-32" value="- IsValid:Boolean" style="text;align=left;verticalAlign=top;spacingLeft=4;spacingRight=4;overflow=hidden;rotatable=0;points=[[0,0.5],[1,0.5]];portConstraint=eastwest;rounded=0;shadow=0;html=0;" vertex="1" parent="WgfoD7nwdyiLuGOQXrAu-14">
          <mxGeometry y="112.95081967213113" width="292.4" height="28.983606557377048" as="geometry" />
        </mxCell>
        <mxCell id="WgfoD7nwdyiLuGOQXrAu-29" value="- Cards:List&lt;Card&gt;" style="text;align=left;verticalAlign=top;spacingLeft=4;spacingRight=4;overflow=hidden;rotatable=0;points=[[0,0.5],[1,0.5]];portConstraint=eastwest;rounded=0;shadow=0;html=0;" vertex="1" parent="WgfoD7nwdyiLuGOQXrAu-14">
          <mxGeometry y="141.93442622950818" width="292.4" height="28.983606557377048" as="geometry" />
        </mxCell>
        <mxCell id="WgfoD7nwdyiLuGOQXrAu-16" value="" style="line;html=1;strokeWidth=1;align=left;verticalAlign=middle;spacingTop=-1;spacingLeft=3;spacingRight=3;rotatable=0;labelPosition=right;points=[];portConstraint=eastwest;" vertex="1" parent="WgfoD7nwdyiLuGOQXrAu-14">
          <mxGeometry y="170.91803278688522" width="292.4" height="20.065573770491802" as="geometry" />
        </mxCell>
        <mxCell id="WgfoD7nwdyiLuGOQXrAu-17" value="-  CreditCardBrand(int id, string name)" style="text;align=left;verticalAlign=top;spacingLeft=4;spacingRight=4;overflow=hidden;rotatable=0;points=[[0,0.5],[1,0.5]];portConstraint=eastwest;rounded=0;shadow=0;html=0;fontSize=11;" vertex="1" parent="WgfoD7nwdyiLuGOQXrAu-14">
          <mxGeometry y="190.98360655737702" width="292.4" height="28.983606557377048" as="geometry" />
        </mxCell>
        <mxCell id="WgfoD7nwdyiLuGOQXrAu-18" value="+  CreditCardBrand(CardBrand brand, string name, bool isValid)" style="text;align=left;verticalAlign=top;spacingLeft=4;spacingRight=4;overflow=hidden;rotatable=0;points=[[0,0.5],[1,0.5]];portConstraint=eastwest;rounded=0;shadow=0;html=0;fontSize=9;" vertex="1" parent="WgfoD7nwdyiLuGOQXrAu-14">
          <mxGeometry y="219.96721311475406" width="292.4" height="28.983606557377048" as="geometry" />
        </mxCell>
        <mxCell id="WgfoD7nwdyiLuGOQXrAu-19" value="- IdentifyCard(string creditCardNumber): CreditCardBrand" style="text;align=left;verticalAlign=top;spacingLeft=4;spacingRight=4;overflow=hidden;rotatable=0;points=[[0,0.5],[1,0.5]];portConstraint=eastwest;rounded=0;shadow=0;html=0;fontSize=10;" vertex="1" parent="WgfoD7nwdyiLuGOQXrAu-14">
          <mxGeometry y="248.9508196721311" width="292.4" height="28.983606557377048" as="geometry" />
        </mxCell>
        <mxCell id="WgfoD7nwdyiLuGOQXrAu-33" value="+ IsCreditCardValid(string numeroCartao):bool " style="text;align=left;verticalAlign=top;spacingLeft=4;spacingRight=4;overflow=hidden;rotatable=0;points=[[0,0.5],[1,0.5]];portConstraint=eastwest;rounded=0;shadow=0;html=0;" vertex="1" parent="WgfoD7nwdyiLuGOQXrAu-14">
          <mxGeometry y="277.9344262295082" width="292.4" height="28.983606557377048" as="geometry" />
        </mxCell>
        <mxCell id="WgfoD7nwdyiLuGOQXrAu-20" value="+RemoveNonNumericCharacters(string input): string " style="text;align=left;verticalAlign=top;spacingLeft=4;spacingRight=4;overflow=hidden;rotatable=0;points=[[0,0.5],[1,0.5]];portConstraint=eastwest;rounded=0;shadow=0;html=0;fontSize=11;" vertex="1" parent="WgfoD7nwdyiLuGOQXrAu-14">
          <mxGeometry y="306.91803278688525" width="292.4" height="28.983606557377048" as="geometry" />
        </mxCell>
        <mxCell id="WgfoD7nwdyiLuGOQXrAu-21" value="ExpiryDate" style="swimlane;fontStyle=2;align=center;verticalAlign=top;childLayout=stackLayout;horizontal=1;startSize=26;horizontalStack=0;resizeParent=1;resizeLast=0;collapsible=1;marginBottom=0;rounded=0;shadow=0;strokeWidth=1;labelBackgroundColor=default;" vertex="1" parent="WgfoD7nwdyiLuGOQXrAu-12">
          <mxGeometry x="25.263125" y="394" width="292.4" height="206" as="geometry">
            <mxRectangle x="230" y="140" width="160" height="26" as="alternateBounds" />
          </mxGeometry>
        </mxCell>
        <mxCell id="WgfoD7nwdyiLuGOQXrAu-22" value="- Value:DateTime" style="text;align=left;verticalAlign=top;spacingLeft=4;spacingRight=4;overflow=hidden;rotatable=0;points=[[0,0.5],[1,0.5]];portConstraint=eastwest;rounded=0;shadow=0;html=0;" vertex="1" parent="WgfoD7nwdyiLuGOQXrAu-21">
          <mxGeometry y="26" width="292.4" height="28.983606557377048" as="geometry" />
        </mxCell>
        <mxCell id="WgfoD7nwdyiLuGOQXrAu-35" value="- Month:int" style="text;align=left;verticalAlign=top;spacingLeft=4;spacingRight=4;overflow=hidden;rotatable=0;points=[[0,0.5],[1,0.5]];portConstraint=eastwest;rounded=0;shadow=0;html=0;" vertex="1" parent="WgfoD7nwdyiLuGOQXrAu-21">
          <mxGeometry y="54.983606557377044" width="292.4" height="28.983606557377048" as="geometry" />
        </mxCell>
        <mxCell id="WgfoD7nwdyiLuGOQXrAu-34" value="- Year:int" style="text;align=left;verticalAlign=top;spacingLeft=4;spacingRight=4;overflow=hidden;rotatable=0;points=[[0,0.5],[1,0.5]];portConstraint=eastwest;rounded=0;shadow=0;html=0;" vertex="1" parent="WgfoD7nwdyiLuGOQXrAu-21">
          <mxGeometry y="83.96721311475409" width="292.4" height="28.983606557377048" as="geometry" />
        </mxCell>
        <mxCell id="WgfoD7nwdyiLuGOQXrAu-23" value="" style="line;html=1;strokeWidth=1;align=left;verticalAlign=middle;spacingTop=-1;spacingLeft=3;spacingRight=3;rotatable=0;labelPosition=right;points=[];portConstraint=eastwest;" vertex="1" parent="WgfoD7nwdyiLuGOQXrAu-21">
          <mxGeometry y="112.95081967213113" width="292.4" height="20.065573770491802" as="geometry" />
        </mxCell>
        <mxCell id="WgfoD7nwdyiLuGOQXrAu-24" value="- ExpiryDate(DateTime value)" style="text;align=left;verticalAlign=top;spacingLeft=4;spacingRight=4;overflow=hidden;rotatable=0;points=[[0,0.5],[1,0.5]];portConstraint=eastwest;rounded=0;shadow=0;html=0;" vertex="1" parent="WgfoD7nwdyiLuGOQXrAu-21">
          <mxGeometry y="133.01639344262293" width="292.4" height="28.983606557377048" as="geometry" />
        </mxCell>
        <mxCell id="WgfoD7nwdyiLuGOQXrAu-27" value="- Formatted_ptBr():String" style="text;align=left;verticalAlign=top;spacingLeft=4;spacingRight=4;overflow=hidden;rotatable=0;points=[[0,0.5],[1,0.5]];portConstraint=eastwest;rounded=0;shadow=0;html=0;" vertex="1" parent="WgfoD7nwdyiLuGOQXrAu-21">
          <mxGeometry y="161.99999999999997" width="292.4" height="28.983606557377048" as="geometry" />
        </mxCell>
        <mxCell id="WgfoD7nwdyiLuGOQXrAu-28" value="Monetary&lt;br&gt;" style="html=1;whiteSpace=wrap;" vertex="1" parent="WgfoD7nwdyiLuGOQXrAu-12">
          <mxGeometry x="27.25" y="617" width="292.1875" height="55" as="geometry" />
        </mxCell>
        <mxCell id="WgfoD7nwdyiLuGOQXrAu-69" style="edgeStyle=orthogonalEdgeStyle;rounded=0;orthogonalLoop=1;jettySize=auto;html=1;" edge="1" parent="1" source="WgfoD7nwdyiLuGOQXrAu-36" target="WgfoD7nwdyiLuGOQXrAu-3">
          <mxGeometry relative="1" as="geometry">
            <Array as="points">
              <mxPoint x="210" y="170" />
              <mxPoint x="210" y="146" />
            </Array>
          </mxGeometry>
        </mxCell>
        <mxCell id="WgfoD7nwdyiLuGOQXrAu-70" value="n" style="edgeLabel;html=1;align=center;verticalAlign=middle;resizable=0;points=[];" vertex="1" connectable="0" parent="WgfoD7nwdyiLuGOQXrAu-69">
          <mxGeometry x="-0.8627" relative="1" as="geometry">
            <mxPoint as="offset" />
          </mxGeometry>
        </mxCell>
        <mxCell id="WgfoD7nwdyiLuGOQXrAu-71" value="1" style="edgeLabel;html=1;align=center;verticalAlign=middle;resizable=0;points=[];" vertex="1" connectable="0" parent="WgfoD7nwdyiLuGOQXrAu-69">
          <mxGeometry x="0.8464" y="-1" relative="1" as="geometry">
            <mxPoint x="-2" y="1" as="offset" />
          </mxGeometry>
        </mxCell>
        <mxCell id="WgfoD7nwdyiLuGOQXrAu-36" value="Card" style="swimlane;fontStyle=2;align=center;verticalAlign=top;childLayout=stackLayout;horizontal=1;startSize=26;horizontalStack=0;resizeParent=1;resizeLast=0;collapsible=1;marginBottom=0;rounded=0;shadow=0;strokeWidth=1;labelBackgroundColor=default;" vertex="1" parent="1">
          <mxGeometry x="335.2944645550528" y="76.9032258064516" width="394.0528657616893" height="422.1935483870968" as="geometry">
            <mxRectangle x="230" y="140" width="160" height="26" as="alternateBounds" />
          </mxGeometry>
        </mxCell>
        <mxCell id="WgfoD7nwdyiLuGOQXrAu-37" value="+ INTERVAL_TRANSACTON:int&#xa;" style="text;align=left;verticalAlign=top;spacingLeft=4;spacingRight=4;overflow=hidden;rotatable=0;points=[[0,0.5],[1,0.5]];portConstraint=eastwest;rounded=0;shadow=0;html=0;" vertex="1" parent="WgfoD7nwdyiLuGOQXrAu-36">
          <mxGeometry y="26" width="394.0528657616893" height="28.93548387096774" as="geometry" />
        </mxCell>
        <mxCell id="WgfoD7nwdyiLuGOQXrAu-38" value="+ REPEAT_TRANSACTON_MERCHANT:int" style="text;align=left;verticalAlign=top;spacingLeft=4;spacingRight=4;overflow=hidden;rotatable=0;points=[[0,0.5],[1,0.5]];portConstraint=eastwest;rounded=0;shadow=0;html=0;" vertex="1" parent="WgfoD7nwdyiLuGOQXrAu-36">
          <mxGeometry y="54.935483870967744" width="394.0528657616893" height="28.93548387096774" as="geometry" />
        </mxCell>
        <mxCell id="WgfoD7nwdyiLuGOQXrAu-39" value="- Active:Boolean" style="text;align=left;verticalAlign=top;spacingLeft=4;spacingRight=4;overflow=hidden;rotatable=0;points=[[0,0.5],[1,0.5]];portConstraint=eastwest;rounded=0;shadow=0;html=0;" vertex="1" parent="WgfoD7nwdyiLuGOQXrAu-36">
          <mxGeometry y="83.87096774193549" width="394.0528657616893" height="28.93548387096774" as="geometry" />
        </mxCell>
        <mxCell id="WgfoD7nwdyiLuGOQXrAu-55" value="- Limit:Monetary" style="text;align=left;verticalAlign=top;spacingLeft=4;spacingRight=4;overflow=hidden;rotatable=0;points=[[0,0.5],[1,0.5]];portConstraint=eastwest;rounded=0;shadow=0;html=0;" vertex="1" parent="WgfoD7nwdyiLuGOQXrAu-36">
          <mxGeometry y="112.80645161290323" width="394.0528657616893" height="28.93548387096774" as="geometry" />
        </mxCell>
        <mxCell id="WgfoD7nwdyiLuGOQXrAu-56" value="- Number:string" style="text;align=left;verticalAlign=top;spacingLeft=4;spacingRight=4;overflow=hidden;rotatable=0;points=[[0,0.5],[1,0.5]];portConstraint=eastwest;rounded=0;shadow=0;html=0;" vertex="1" parent="WgfoD7nwdyiLuGOQXrAu-36">
          <mxGeometry y="141.74193548387098" width="394.0528657616893" height="28.93548387096774" as="geometry" />
        </mxCell>
        <mxCell id="WgfoD7nwdyiLuGOQXrAu-57" value="- CardBrand: CreditCardBrand" style="text;align=left;verticalAlign=top;spacingLeft=4;spacingRight=4;overflow=hidden;rotatable=0;points=[[0,0.5],[1,0.5]];portConstraint=eastwest;rounded=0;shadow=0;html=0;" vertex="1" parent="WgfoD7nwdyiLuGOQXrAu-36">
          <mxGeometry y="170.67741935483872" width="394.0528657616893" height="28.93548387096774" as="geometry" />
        </mxCell>
        <mxCell id="WgfoD7nwdyiLuGOQXrAu-54" value="- Validate: ExpiryDate" style="text;align=left;verticalAlign=top;spacingLeft=4;spacingRight=4;overflow=hidden;rotatable=0;points=[[0,0.5],[1,0.5]];portConstraint=eastwest;rounded=0;shadow=0;html=0;" vertex="1" parent="WgfoD7nwdyiLuGOQXrAu-36">
          <mxGeometry y="199.61290322580646" width="394.0528657616893" height="28.93548387096774" as="geometry" />
        </mxCell>
        <mxCell id="WgfoD7nwdyiLuGOQXrAu-58" value="- CVV:string" style="text;align=left;verticalAlign=top;spacingLeft=4;spacingRight=4;overflow=hidden;rotatable=0;points=[[0,0.5],[1,0.5]];portConstraint=eastwest;rounded=0;shadow=0;html=0;" vertex="1" parent="WgfoD7nwdyiLuGOQXrAu-36">
          <mxGeometry y="228.5483870967742" width="394.0528657616893" height="28.93548387096774" as="geometry" />
        </mxCell>
        <mxCell id="WgfoD7nwdyiLuGOQXrAu-59" value="- Transactions:List&lt;Transaction&gt;" style="text;align=left;verticalAlign=top;spacingLeft=4;spacingRight=4;overflow=hidden;rotatable=0;points=[[0,0.5],[1,0.5]];portConstraint=eastwest;rounded=0;shadow=0;html=0;" vertex="1" parent="WgfoD7nwdyiLuGOQXrAu-36">
          <mxGeometry y="257.48387096774195" width="394.0528657616893" height="28.93548387096774" as="geometry" />
        </mxCell>
        <mxCell id="WgfoD7nwdyiLuGOQXrAu-40" value="" style="line;html=1;strokeWidth=1;align=left;verticalAlign=middle;spacingTop=-1;spacingLeft=3;spacingRight=3;rotatable=0;labelPosition=right;points=[];portConstraint=eastwest;" vertex="1" parent="WgfoD7nwdyiLuGOQXrAu-36">
          <mxGeometry y="286.4193548387097" width="394.0528657616893" height="20.032258064516128" as="geometry" />
        </mxCell>
        <mxCell id="WgfoD7nwdyiLuGOQXrAu-41" value="-  CreateTransaction(Merchant merchant, Monetary value, string description = &quot;&quot;):void" style="text;align=left;verticalAlign=top;spacingLeft=4;spacingRight=4;overflow=hidden;rotatable=0;points=[[0,0.5],[1,0.5]];portConstraint=eastwest;rounded=0;shadow=0;html=0;fontSize=10;" vertex="1" parent="WgfoD7nwdyiLuGOQXrAu-36">
          <mxGeometry y="306.45161290322585" width="394.0528657616893" height="28.93548387096774" as="geometry" />
        </mxCell>
        <mxCell id="WgfoD7nwdyiLuGOQXrAu-42" value="+ ValidateTransaction(Transaction transaction):void" style="text;align=left;verticalAlign=top;spacingLeft=4;spacingRight=4;overflow=hidden;rotatable=0;points=[[0,0.5],[1,0.5]];portConstraint=eastwest;rounded=0;shadow=0;html=0;" vertex="1" parent="WgfoD7nwdyiLuGOQXrAu-36">
          <mxGeometry y="335.3870967741936" width="394.0528657616893" height="28.93548387096774" as="geometry" />
        </mxCell>
        <mxCell id="WgfoD7nwdyiLuGOQXrAu-43" value="+  VerifyLimit(Transaction transaction):void" style="text;align=left;verticalAlign=top;spacingLeft=4;spacingRight=4;overflow=hidden;rotatable=0;points=[[0,0.5],[1,0.5]];portConstraint=eastwest;rounded=0;shadow=0;html=0;" vertex="1" parent="WgfoD7nwdyiLuGOQXrAu-36">
          <mxGeometry y="364.32258064516134" width="394.0528657616893" height="28.93548387096774" as="geometry" />
        </mxCell>
        <mxCell id="WgfoD7nwdyiLuGOQXrAu-44" value="+ IsCardActive():void" style="text;align=left;verticalAlign=top;spacingLeft=4;spacingRight=4;overflow=hidden;rotatable=0;points=[[0,0.5],[1,0.5]];portConstraint=eastwest;rounded=0;shadow=0;html=0;" vertex="1" parent="WgfoD7nwdyiLuGOQXrAu-36">
          <mxGeometry y="393.2580645161291" width="394.0528657616893" height="28.93548387096774" as="geometry" />
        </mxCell>
        <mxCell id="WgfoD7nwdyiLuGOQXrAu-45" value="Transaction" style="swimlane;fontStyle=2;align=center;verticalAlign=top;childLayout=stackLayout;horizontal=1;startSize=26;horizontalStack=0;resizeParent=1;resizeLast=0;collapsible=1;marginBottom=0;rounded=0;shadow=0;strokeWidth=1;labelBackgroundColor=default;" vertex="1" parent="1">
          <mxGeometry x="380.28999999999996" y="517.9" width="306.05" height="172.1" as="geometry">
            <mxRectangle x="230" y="140" width="160" height="26" as="alternateBounds" />
          </mxGeometry>
        </mxCell>
        <mxCell id="WgfoD7nwdyiLuGOQXrAu-46" value="- DtTransaction: DateTime" style="text;align=left;verticalAlign=top;spacingLeft=4;spacingRight=4;overflow=hidden;rotatable=0;points=[[0,0.5],[1,0.5]];portConstraint=eastwest;rounded=0;shadow=0;html=0;" vertex="1" parent="WgfoD7nwdyiLuGOQXrAu-45">
          <mxGeometry y="26" width="306.05" height="28.93548387096774" as="geometry" />
        </mxCell>
        <mxCell id="WgfoD7nwdyiLuGOQXrAu-47" value="- Value:Monetary" style="text;align=left;verticalAlign=top;spacingLeft=4;spacingRight=4;overflow=hidden;rotatable=0;points=[[0,0.5],[1,0.5]];portConstraint=eastwest;rounded=0;shadow=0;html=0;" vertex="1" parent="WgfoD7nwdyiLuGOQXrAu-45">
          <mxGeometry y="54.935483870967744" width="306.05" height="28.93548387096774" as="geometry" />
        </mxCell>
        <mxCell id="WgfoD7nwdyiLuGOQXrAu-60" value="- Description:string" style="text;align=left;verticalAlign=top;spacingLeft=4;spacingRight=4;overflow=hidden;rotatable=0;points=[[0,0.5],[1,0.5]];portConstraint=eastwest;rounded=0;shadow=0;html=0;" vertex="1" parent="WgfoD7nwdyiLuGOQXrAu-45">
          <mxGeometry y="83.87096774193549" width="306.05" height="28.93548387096774" as="geometry" />
        </mxCell>
        <mxCell id="WgfoD7nwdyiLuGOQXrAu-48" value="- Merchant:Merchant" style="text;align=left;verticalAlign=top;spacingLeft=4;spacingRight=4;overflow=hidden;rotatable=0;points=[[0,0.5],[1,0.5]];portConstraint=eastwest;rounded=0;shadow=0;html=0;" vertex="1" parent="WgfoD7nwdyiLuGOQXrAu-45">
          <mxGeometry y="112.80645161290323" width="306.05" height="28.93548387096774" as="geometry" />
        </mxCell>
        <mxCell id="WgfoD7nwdyiLuGOQXrAu-49" value="" style="line;html=1;strokeWidth=1;align=left;verticalAlign=middle;spacingTop=-1;spacingLeft=3;spacingRight=3;rotatable=0;labelPosition=right;points=[];portConstraint=eastwest;" vertex="1" parent="WgfoD7nwdyiLuGOQXrAu-45">
          <mxGeometry y="141.74193548387098" width="306.05" height="20.032258064516128" as="geometry" />
        </mxCell>
        <mxCell id="WgfoD7nwdyiLuGOQXrAu-61" style="edgeStyle=orthogonalEdgeStyle;rounded=0;orthogonalLoop=1;jettySize=auto;html=1;" edge="1" parent="1" source="WgfoD7nwdyiLuGOQXrAu-8" target="WgfoD7nwdyiLuGOQXrAu-36">
          <mxGeometry relative="1" as="geometry">
            <Array as="points">
              <mxPoint x="270" y="490" />
              <mxPoint x="270" y="288" />
            </Array>
          </mxGeometry>
        </mxCell>
        <mxCell id="WgfoD7nwdyiLuGOQXrAu-68" value="1" style="edgeLabel;html=1;align=center;verticalAlign=middle;resizable=0;points=[];" vertex="1" connectable="0" parent="WgfoD7nwdyiLuGOQXrAu-61">
          <mxGeometry x="0.9023" y="-1" relative="1" as="geometry">
            <mxPoint as="offset" />
          </mxGeometry>
        </mxCell>
        <mxCell id="WgfoD7nwdyiLuGOQXrAu-62" style="edgeStyle=orthogonalEdgeStyle;rounded=0;orthogonalLoop=1;jettySize=auto;html=1;" edge="1" parent="1" source="WgfoD7nwdyiLuGOQXrAu-8" target="WgfoD7nwdyiLuGOQXrAu-45">
          <mxGeometry relative="1" as="geometry">
            <Array as="points">
              <mxPoint x="270" y="490" />
              <mxPoint x="270" y="604" />
            </Array>
          </mxGeometry>
        </mxCell>
        <mxCell id="WgfoD7nwdyiLuGOQXrAu-66" value="1" style="edgeLabel;html=1;align=center;verticalAlign=middle;resizable=0;points=[];" vertex="1" connectable="0" parent="WgfoD7nwdyiLuGOQXrAu-62">
          <mxGeometry x="-0.9267" relative="1" as="geometry">
            <mxPoint x="-3" as="offset" />
          </mxGeometry>
        </mxCell>
        <mxCell id="WgfoD7nwdyiLuGOQXrAu-67" value="1" style="edgeLabel;html=1;align=center;verticalAlign=middle;resizable=0;points=[];" vertex="1" connectable="0" parent="WgfoD7nwdyiLuGOQXrAu-62">
          <mxGeometry x="0.8957" y="-1" relative="1" as="geometry">
            <mxPoint as="offset" />
          </mxGeometry>
        </mxCell>
        <mxCell id="WgfoD7nwdyiLuGOQXrAu-63" style="edgeStyle=orthogonalEdgeStyle;rounded=0;orthogonalLoop=1;jettySize=auto;html=1;" edge="1" parent="1" source="WgfoD7nwdyiLuGOQXrAu-8" target="WgfoD7nwdyiLuGOQXrAu-2">
          <mxGeometry relative="1" as="geometry" />
        </mxCell>
        <mxCell id="WgfoD7nwdyiLuGOQXrAu-64" value="1" style="edgeLabel;html=1;align=center;verticalAlign=middle;resizable=0;points=[];" vertex="1" connectable="0" parent="WgfoD7nwdyiLuGOQXrAu-63">
          <mxGeometry x="-0.6498" y="-1" relative="1" as="geometry">
            <mxPoint as="offset" />
          </mxGeometry>
        </mxCell>
        <mxCell id="WgfoD7nwdyiLuGOQXrAu-65" value="1" style="edgeStyle=orthogonalEdgeStyle;rounded=0;orthogonalLoop=1;jettySize=auto;html=1;" edge="1" parent="1" source="WgfoD7nwdyiLuGOQXrAu-7" target="WgfoD7nwdyiLuGOQXrAu-2">
          <mxGeometry relative="1" as="geometry" />
        </mxCell>
        <mxCell id="WgfoD7nwdyiLuGOQXrAu-72" style="edgeStyle=orthogonalEdgeStyle;rounded=0;orthogonalLoop=1;jettySize=auto;html=1;" edge="1" parent="1" source="WgfoD7nwdyiLuGOQXrAu-56" target="WgfoD7nwdyiLuGOQXrAu-5">
          <mxGeometry relative="1" as="geometry">
            <Array as="points">
              <mxPoint x="210" y="220" />
              <mxPoint x="210" y="250" />
            </Array>
          </mxGeometry>
        </mxCell>
        <mxCell id="WgfoD7nwdyiLuGOQXrAu-73" value="n" style="edgeLabel;html=1;align=center;verticalAlign=middle;resizable=0;points=[];" vertex="1" connectable="0" parent="WgfoD7nwdyiLuGOQXrAu-72">
          <mxGeometry x="-0.8756" y="-1" relative="1" as="geometry">
            <mxPoint as="offset" />
          </mxGeometry>
        </mxCell>
        <mxCell id="WgfoD7nwdyiLuGOQXrAu-74" value="1" style="edgeLabel;html=1;align=center;verticalAlign=middle;resizable=0;points=[];" vertex="1" connectable="0" parent="WgfoD7nwdyiLuGOQXrAu-72">
          <mxGeometry x="0.8269" y="-1" relative="1" as="geometry">
            <mxPoint x="-5" y="1" as="offset" />
          </mxGeometry>
        </mxCell>
        <mxCell id="WgfoD7nwdyiLuGOQXrAu-75" style="edgeStyle=orthogonalEdgeStyle;rounded=0;orthogonalLoop=1;jettySize=auto;html=1;" edge="1" parent="1" source="WgfoD7nwdyiLuGOQXrAu-28" target="WgfoD7nwdyiLuGOQXrAu-36">
          <mxGeometry relative="1" as="geometry">
            <Array as="points">
              <mxPoint x="790" y="675" />
              <mxPoint x="790" y="440" />
            </Array>
          </mxGeometry>
        </mxCell>
        <mxCell id="WgfoD7nwdyiLuGOQXrAu-76" value="1" style="edgeLabel;html=1;align=center;verticalAlign=middle;resizable=0;points=[];" vertex="1" connectable="0" parent="WgfoD7nwdyiLuGOQXrAu-75">
          <mxGeometry x="-0.9475" y="3" relative="1" as="geometry">
            <mxPoint x="2" y="-3" as="offset" />
          </mxGeometry>
        </mxCell>
        <mxCell id="WgfoD7nwdyiLuGOQXrAu-77" value="1" style="edgeLabel;html=1;align=center;verticalAlign=middle;resizable=0;points=[];" vertex="1" connectable="0" parent="WgfoD7nwdyiLuGOQXrAu-75">
          <mxGeometry x="0.9125" relative="1" as="geometry">
            <mxPoint as="offset" />
          </mxGeometry>
        </mxCell>
        <mxCell id="WgfoD7nwdyiLuGOQXrAu-78" style="edgeStyle=orthogonalEdgeStyle;rounded=0;orthogonalLoop=1;jettySize=auto;html=1;" edge="1" parent="1" source="WgfoD7nwdyiLuGOQXrAu-21" target="WgfoD7nwdyiLuGOQXrAu-36">
          <mxGeometry relative="1" as="geometry">
            <Array as="points">
              <mxPoint x="900" y="527" />
              <mxPoint x="900" y="380" />
            </Array>
          </mxGeometry>
        </mxCell>
        <mxCell id="WgfoD7nwdyiLuGOQXrAu-79" value="1" style="edgeLabel;html=1;align=center;verticalAlign=middle;resizable=0;points=[];" vertex="1" connectable="0" parent="WgfoD7nwdyiLuGOQXrAu-78">
          <mxGeometry x="-0.9358" y="1" relative="1" as="geometry">
            <mxPoint x="2" y="-1" as="offset" />
          </mxGeometry>
        </mxCell>
        <mxCell id="WgfoD7nwdyiLuGOQXrAu-80" value="1" style="edgeLabel;html=1;align=center;verticalAlign=middle;resizable=0;points=[];" vertex="1" connectable="0" parent="WgfoD7nwdyiLuGOQXrAu-78">
          <mxGeometry x="0.9145" y="-1" relative="1" as="geometry">
            <mxPoint as="offset" />
          </mxGeometry>
        </mxCell>
        <mxCell id="WgfoD7nwdyiLuGOQXrAu-81" style="edgeStyle=orthogonalEdgeStyle;rounded=0;orthogonalLoop=1;jettySize=auto;html=1;" edge="1" parent="1" source="WgfoD7nwdyiLuGOQXrAu-18" target="WgfoD7nwdyiLuGOQXrAu-36">
          <mxGeometry relative="1" as="geometry">
            <Array as="points">
              <mxPoint x="930" y="314" />
              <mxPoint x="930" y="288" />
            </Array>
          </mxGeometry>
        </mxCell>
        <mxCell id="WgfoD7nwdyiLuGOQXrAu-82" value="1" style="edgeLabel;html=1;align=center;verticalAlign=middle;resizable=0;points=[];" vertex="1" connectable="0" parent="WgfoD7nwdyiLuGOQXrAu-81">
          <mxGeometry x="-0.8955" relative="1" as="geometry">
            <mxPoint x="6" as="offset" />
          </mxGeometry>
        </mxCell>
        <mxCell id="WgfoD7nwdyiLuGOQXrAu-83" value="n" style="edgeLabel;html=1;align=center;verticalAlign=middle;resizable=0;points=[];" vertex="1" connectable="0" parent="WgfoD7nwdyiLuGOQXrAu-81">
          <mxGeometry x="0.8518" y="-1" relative="1" as="geometry">
            <mxPoint as="offset" />
          </mxGeometry>
        </mxCell>
        <mxCell id="WgfoD7nwdyiLuGOQXrAu-84" style="edgeStyle=orthogonalEdgeStyle;rounded=0;orthogonalLoop=1;jettySize=auto;html=1;" edge="1" parent="1" source="WgfoD7nwdyiLuGOQXrAu-28" target="WgfoD7nwdyiLuGOQXrAu-45">
          <mxGeometry relative="1" as="geometry">
            <Array as="points">
              <mxPoint x="750" y="675" />
              <mxPoint x="750" y="675" />
            </Array>
          </mxGeometry>
        </mxCell>
        <mxCell id="WgfoD7nwdyiLuGOQXrAu-85" value="1" style="edgeLabel;html=1;align=center;verticalAlign=middle;resizable=0;points=[];" vertex="1" connectable="0" parent="WgfoD7nwdyiLuGOQXrAu-84">
          <mxGeometry x="0.8671" relative="1" as="geometry">
            <mxPoint y="1" as="offset" />
          </mxGeometry>
        </mxCell>
      </root>
    </mxGraphModel>
  </diagram>
</mxfile>
